<svg xmlns="http://www.w3.org/2000/svg" xmlns:xlink="http://www.w3.org/1999/xlink" viewBox="0 0 1000 1000"><defs><style>.cls-1{fill:url(#linear-gradient);}.cls-2{fill:#fff;}</style><linearGradient id="linear-gradient" x1="500" x2="500" y2="1000" gradientUnits="userSpaceOnUse"><stop offset="0" stop-color="#f8ad39"/><stop offset="1" stop-color="#d01c5c"/></linearGradient></defs><title>logo</title><g id="Back"><rect class="cls-1" width="1000" height="1000"/></g><g id="Text"><path class="cls-2" d="M251.59921,572H206V709.99927H110V290H277.99976a143.65468,143.65468,0,0,1,144,144c0,51.59989-31.19988,98.40005-77.4001,121.79915l89.40046,154.20009H330.79884ZM206,488h71.99984c26.40015,0,48-23.3992,48-53.99951S304.4,380,277.99984,380H206Z"/><path class="cls-2" d="M889,512.00056c0,128.39987-89.56953,206.399-207.39358,206.399-132.25071,0-227.23133-97.19907-227.23133-217.79923,0-121.79937,96.78383-218.99941,220.61923-218.99941,80.5525,0,148.48156,39.60013,183.94892,95.99986L777.18828,424.4c-17.43331-27.59928-55.30561-49.19962-102.79568-49.19962-70.93473,0-123.8354,52.19959-123.8354,125.99951,0,71.40054,50.49672,123.60013,132.25169,123.60013,55.90635,0,92.57618-24.6003,107.60456-64.8H678V476H889Z"/></g></svg>